# ProBuilder 5.0.6
# https://unity3d.com/unity/features/worldbuilding/probuilder
# 29/11/2022 15:53:23

mtllib ./Frustum.mtl
o Frustum

g Cube
v -0.3343105 0.2985302 1.906554
v -0.7717094 0.2985302 1.906554
v -0.3343105 0.7026332 1.906554
v -0.7717094 0.7026332 1.906554
v -1.013693 0.0103182 0.9939078
v -1.013693 0.0103182 0.004936337
v -1.013693 0.9908453 0.9939078
v -1.013693 0.9908453 0.004936337
v -0.7717094 0.2985302 -0.9077102
v -0.3343105 0.2985302 -0.9077102
v -0.7717094 0.7026332 -0.9077102
v -0.3343105 0.7026332 -0.9077102
v -0.09232664 0.0103182 0.004936337
v -0.09232664 0.0103182 0.9939078
v -0.09232664 0.9908453 0.004936337
v -0.09232664 0.9908453 0.9939078

vt -0.3343105 0.2985302
vt -0.7717094 0.2985302
vt -0.3343105 0.7026332
vt -0.7717094 0.7026332
vt 0.9939078 0.0103182
vt 0.004936337 0.0103182
vt 0.9939078 0.9908453
vt 0.004936337 0.9908453
vt 0.7717094 0.2985302
vt 0.3343105 0.2985302
vt 0.7717094 0.7026332
vt 0.3343105 0.7026332
vt -0.004936337 0.0103182
vt -0.9939078 0.0103182
vt -0.004936337 0.9908453
vt -0.9939078 0.9908453
vt 0.09232664 0.9939078
vt 1.013693 0.9939078
vt 0.09232664 0.004936337
vt 1.013693 0.004936337
vt -0.09232664 0.004936337
vt -1.013693 0.004936337
vt -0.09232664 0.9939078
vt -1.013693 0.9939078
vt -1.013693 0.001599982
vt -0.09232664 0.001599982
vt -0.7717094 -0.9554736
vt -0.3343105 -0.9554736
vt 0.2645704 0.9908453
vt 0.2645704 0.0103182
vt -0.6796117 0.7026332
vt -0.6796117 0.2985302
vt 0.01889088 0.0103182
vt 0.01889088 0.9908453
vt 0.963073 0.2985302
vt 0.963073 0.7026332
vt 0.09232664 0.3030892
vt 1.013693 0.3030892
vt 0.3343105 -0.6539844
vt 0.7717094 -0.6539844
vt -0.09232664 0.9508781
vt -1.013693 0.9508781
vt -0.3343105 1.907952
vt -0.7717094 1.907952
vt -0.9843737 0.9908453
vt -0.9843737 0.0103182
vt -1.928556 0.7026332
vt -1.928556 0.2985302
vt 0.7009125 0.0103182
vt 0.7009125 0.9908453
vt 1.645095 0.2985302
vt 1.645095 0.7026332
vt 1.013693 0.6493889
vt 0.09232664 0.6493889
vt 0.7717094 1.606462
vt 0.3343105 1.606462

vn 0 0 1
vn -1 0 0
vn 0 0 -1
vn 1 0 0
vn 0 1 0
vn 0 -1 0
vn 0 -0.9535803 -0.3011388
vn -0.9666001 0 -0.2562894
vn 0.9666001 0 -0.2562894
vn 0 0.9535803 -0.3011389
vn 0 -0.9535803 0.3011388
vn 0.9666001 0 0.2562894
vn -0.9666001 0 0.2562894
vn 0 0.9535803 0.3011389

usemtl ProBuilder_Default_URP
f 3/3/1 4/4/1 2/2/1 1/1/1
f 7/7/2 8/8/2 6/6/2 5/5/2
f 11/11/3 12/12/3 10/10/3 9/9/3
f 15/15/4 16/16/4 14/14/4 13/13/4
f 15/19/5 8/20/5 7/18/5 16/17/5
f 14/23/6 5/24/6 6/22/6 13/21/6
f 9/27/7 10/28/7 13/26/7 6/25/7
f 11/31/8 9/32/8 6/30/8 8/29/8
f 10/35/9 12/36/9 15/34/9 13/33/9
f 12/39/10 11/40/10 8/38/10 15/37/10
f 1/43/11 2/44/11 5/42/11 14/41/11
f 3/47/12 1/48/12 14/46/12 16/45/12
f 2/51/13 4/52/13 7/50/13 5/49/13
f 4/55/14 3/56/14 16/54/14 7/53/14

